<?xml version="1.0" standalone="no"?><!DOCTYPE svg PUBLIC "-//W3C//DTD SVG 1.1//EN" "http://www.w3.org/Graphics/SVG/1.1/DTD/svg11.dtd"><svg t="1548151604912" class="icon" style="" viewBox="0 0 1024 1024" version="1.1" xmlns="http://www.w3.org/2000/svg" p-id="3074" xmlns:xlink="http://www.w3.org/1999/xlink" width="32" height="32"><defs><style type="text/css"></style></defs><path d="M859.008 297.536l-132.48-133.056c-48.64-48.64-128-48.64-177.344 0l-460.8 461.76c-15.168 15.168-23.744 35.904-23.744 57.344l0 212.032c0 42.496 22.08 63.936 64 63.936l213.632-1.152c21.44-0.064 41.984-8.704 57.152-23.872l459.648-460.48C908.288 425.472 908.288 346.176 859.008 297.536zM334.144 894.464 128.64 895.68l0-204.032c0-3.904 1.216-7.552 2.24-11.264 1.408 4.352 3.584 8.576 7.04 12.032l193.088 193.024c3.584 3.584 7.872 5.696 12.352 7.104C340.288 893.312 337.344 894.464 334.144 894.464zM382.72 862.976c-0.256-7.424-3.008-14.784-8.704-20.48l-193.088-193.088c-5.312-5.312-12.032-7.872-18.944-8.384l312.128-312.384 221.184 221.184L382.72 862.976zM814.784 429.952l-72.576 72.704L521.152 281.536l72.96-73.024c24.32-24.32 64-24.256 88.256 0.064l132.48 133.056C839.168 366.08 839.104 405.568 814.784 429.952z" p-id="3075" fill="#FE9F05"></path></svg>