<?xml version="1.0" standalone="no"?><!DOCTYPE svg PUBLIC "-//W3C//DTD SVG 1.1//EN" "http://www.w3.org/Graphics/SVG/1.1/DTD/svg11.dtd"><svg t="1546421318387" class="icon" style="" viewBox="0 0 1024 1024" version="1.1" xmlns="http://www.w3.org/2000/svg" p-id="3992" xmlns:xlink="http://www.w3.org/1999/xlink" width="32" height="32"><defs><style type="text/css"></style></defs><path d="M455.908 829.029c-62.019 0-120.325-24.151-164.179-68.006-43.854-43.854-68.005-102.16-68.005-164.18 0-62.019 24.151-120.325 68.005-164.178 43.854-43.854 102.16-68.005 164.179-68.005s120.324 24.151 164.179 68.005c43.854 43.854 68.005 102.16 68.005 164.178s-24.151 120.326-68.005 164.18c-43.855 43.855-102.16 68.006-164.179 68.006z m0-414.368c-100.457 0-182.184 81.727-182.184 182.183 0 100.457 81.727 182.186 182.184 182.186 100.456 0 182.184-81.729 182.184-182.186 0-100.456-81.728-182.183-182.184-182.183z" fill="#3DBDEF" p-id="3993"></path><path d="M699.65 238.204l42.366 31.718-139.478 186.304-42.366-31.718z" fill="#46BBED" p-id="3994"></path><path d="M770.338 420.593h-50v-166.99h-165.49v-50h215.49z" fill="#3DBDEF" p-id="3995"></path></svg>