<?xml version="1.0" standalone="no"?><!DOCTYPE svg PUBLIC "-//W3C//DTD SVG 1.1//EN" "http://www.w3.org/Graphics/SVG/1.1/DTD/svg11.dtd"><svg t="1547610451523" class="icon" style="" viewBox="0 0 1024 1024" version="1.1" xmlns="http://www.w3.org/2000/svg" p-id="2850" xmlns:xlink="http://www.w3.org/1999/xlink" width="32" height="32"><defs><style type="text/css"></style></defs><path d="M606.4 554.3c79.2-36 134.4-115.9 134.4-208.8 0-126.6-102.3-229.3-228.5-229.3S283.8 218.9 283.8 345.6c0 92.9 55.2 172.8 134.4 208.8-172.8 40-304.6 187.4-321.6 368.5H928c-16.9-181.2-148.7-328.5-321.6-368.6z m-94.1-58.5c-45.3 0-84.3-24.5-104.1-60.2-8.1-2-14.1-8.6-14.1-16.9 0-9.8 8.4-17.8 18.7-17.8 8.1 0 14.8 5 17.4 11.9h7.5c12.2 27.9 41 47.4 74.6 47.4 33.6 0 62.4-19.6 74.6-47.4h7.5c2.6-6.9 9.3-11.9 17.4-11.9 10.3 0 18.7 8 18.7 17.8 0 8.3-6.1 14.9-14.1 16.9-19.9 35.7-58.8 60.2-104.1 60.2z" p-id="2851" fill="#ffffff"></path></svg>