<?xml version="1.0" standalone="no"?><!DOCTYPE svg PUBLIC "-//W3C//DTD SVG 1.1//EN" "http://www.w3.org/Graphics/SVG/1.1/DTD/svg11.dtd"><svg t="1546681002348" class="icon" style="" viewBox="0 0 1024 1024" version="1.1" xmlns="http://www.w3.org/2000/svg" p-id="3417" xmlns:xlink="http://www.w3.org/1999/xlink" width="32" height="32"><defs><style type="text/css"></style></defs><path d="M412.444444 167.111111h455.111112a28.444444 28.444444 0 0 1 28.444444 28.444445v28.444444a28.444444 28.444444 0 0 1-28.444444 28.444444H412.444444a28.444444 28.444444 0 0 1-28.444444-28.444444v-28.444444a28.444444 28.444444 0 0 1 28.444444-28.444445zM412.444444 469.333333h455.111112a28.444444 28.444444 0 0 1 28.444444 28.444445v28.444444a28.444444 28.444444 0 0 1-28.444444 28.444445H412.444444a28.444444 28.444444 0 0 1-28.444444-28.444445v-28.444444a28.444444 28.444444 0 0 1 28.444444-28.444445z m0 302.222223h455.111112a28.444444 28.444444 0 0 1 28.444444 28.444444v28.444444a28.444444 28.444444 0 0 1-28.444444 28.444445H412.444444a28.444444 28.444444 0 0 1-28.444444-28.444445v-28.444444a28.444444 28.444444 0 0 1 28.444444-28.444444z m-256-625.777778h71.111112a28.444444 28.444444 0 0 1 28.444444 28.444444v71.111111a28.444444 28.444444 0 0 1-28.444444 28.444445h-71.111112a28.444444 28.444444 0 0 1-28.444444-28.444445v-71.111111a28.444444 28.444444 0 0 1 28.444444-28.444444z m0 302.222222h71.111112a28.444444 28.444444 0 0 1 28.444444 28.444444v71.111112a28.444444 28.444444 0 0 1-28.444444 28.444444h-71.111112a28.444444 28.444444 0 0 1-28.444444-28.444444v-71.111112a28.444444 28.444444 0 0 1 28.444444-28.444444z m0 302.222222h71.111112a28.444444 28.444444 0 0 1 28.444444 28.444445v71.111111a28.444444 28.444444 0 0 1-28.444444 28.444444h-71.111112a28.444444 28.444444 0 0 1-28.444444-28.444444v-71.111111a28.444444 28.444444 0 0 1 28.444444-28.444445z" fill="#ffffff" p-id="3418"></path></svg>