<?xml version="1.0" standalone="no"?><!DOCTYPE svg PUBLIC "-//W3C//DTD SVG 1.1//EN" "http://www.w3.org/Graphics/SVG/1.1/DTD/svg11.dtd"><svg t="1548151932104" class="icon" style="" viewBox="0 0 1024 1024" version="1.1" xmlns="http://www.w3.org/2000/svg" p-id="10935" xmlns:xlink="http://www.w3.org/1999/xlink" width="32" height="32"><defs><style type="text/css"></style></defs><path d="M798.8224 327.5776h-81.408c-7.7824 0-14.848-4.4032-18.3296-11.3664L672.768 263.2704c-10.4448-20.992-31.5392-34.0992-54.9888-34.0992H406.2208c-23.4496 0-44.544 13.0048-54.9888 33.9968l-26.4192 52.9408c-3.4816 6.9632-10.5472 11.3664-18.3296 11.3664h-81.3056c-33.8944 0-61.44 27.5456-61.44 61.44v344.3712c0 33.8944 27.5456 61.44 61.44 61.44H798.72c33.8944 0 61.44-27.5456 61.44-61.44V389.0176c0.1024-33.8944-27.5456-61.44-61.3376-61.44z m20.48 405.7088c0 11.264-9.216 20.48-20.48 20.48H225.1776c-11.264 0-20.48-9.216-20.48-20.48V389.0176c0-11.264 9.216-20.48 20.48-20.48h81.3056c23.4496 0 44.544-13.0048 54.9888-33.9968l26.4192-52.9408c3.4816-6.9632 10.5472-11.3664 18.3296-11.3664h211.456c7.7824 0 14.848 4.3008 18.3296 11.3664l26.3168 52.8384c10.4448 20.992 31.5392 34.0992 54.9888 34.0992H798.72c11.264 0 20.48 9.216 20.48 20.48v344.2688z" p-id="10936" fill="#FE9F05"></path><path d="M747.52 397.0048c-13.9264 0-25.2928 11.264-25.2928 25.1904 0 13.9264 11.3664 25.2928 25.2928 25.2928s25.2928-11.264 25.2928-25.2928c-0.1024-13.9264-11.3664-25.1904-25.2928-25.1904zM512.3072 381.5424c-90.112 0-163.4304 73.3184-163.4304 163.4304s73.3184 163.4304 163.4304 163.4304 163.4304-73.3184 163.4304-163.4304-73.3184-163.4304-163.4304-163.4304z m0 285.7984c-67.4816 0-122.4704-54.8864-122.4704-122.4704 0-67.4816 54.8864-122.4704 122.4704-122.4704s122.4704 54.8864 122.4704 122.4704c-0.1024 67.584-54.9888 122.4704-122.4704 122.4704z" p-id="10937" fill="#FE9F05"></path></svg>