<?xml version="1.0" standalone="no"?><!DOCTYPE svg PUBLIC "-//W3C//DTD SVG 1.1//EN" "http://www.w3.org/Graphics/SVG/1.1/DTD/svg11.dtd"><svg t="1546421389803" class="icon" style="" viewBox="0 0 1024 1024" version="1.1" xmlns="http://www.w3.org/2000/svg" p-id="5433" xmlns:xlink="http://www.w3.org/1999/xlink" width="32" height="32"><defs><style type="text/css"></style></defs><path d="M594.84 578.3c-104.668 0-189.822-85.153-189.822-189.822s85.153-189.822 189.822-189.822 189.822 85.153 189.822 189.822S699.509 578.3 594.84 578.3z m0-333.85c-79.418 0-144.029 64.611-144.029 144.029s64.611 144.029 144.029 144.029c79.418 0 144.029-64.611 144.029-144.029S674.258 244.45 594.84 244.45z" fill="#EA6F91" p-id="5434"></path><path d="M240.641 709.119l227.136-228.231 35.084 34.916-227.136 228.23z" fill="#EA6F91" p-id="5435"></path><path d="M477.956 735.632l-228.23-227.136 34.916-35.084 228.23 227.136z" fill="#EA6F91" p-id="5436"></path></svg>